HIERARCHY
ROOT Hips
{
    OFFSET 0.000000 0.000000 0.000000
    CHANNELS 6 Xposition Yposition Zposition Zrotation Xrotation Yrotation
    JOINT Spine
    {
        OFFSET -0.000000 8.349382 0.000000
        CHANNELS 3 Zrotation Xrotation Yrotation
        JOINT Spine1
        {
            OFFSET -0.000000 23.269058 0.000000
            CHANNELS 3 Zrotation Xrotation Yrotation
            JOINT Neck
            {
                OFFSET -0.000000 23.173496 2.106681
                CHANNELS 3 Zrotation Xrotation Yrotation
                JOINT Head
                {
                    OFFSET -0.000000 14.255042 -2.036435
                    CHANNELS 3 Zrotation Xrotation Yrotation
                    End Site
                    {
                        OFFSET -0.000000 25.455433 0.000000
                    }
                }
            }
            JOINT LeftShoulder
            {
                OFFSET 3.917082 21.531742 0.000256
                CHANNELS 3 Zrotation Xrotation Yrotation
                JOINT LeftArm
                {
                    OFFSET 10.728225 0.000000 0.000000
                    CHANNELS 3 Zrotation Xrotation Yrotation
                    JOINT LeftForeArm
                    {
                        OFFSET 30.046112 0.000000 0.000000
                        CHANNELS 3 Zrotation Xrotation Yrotation
                        JOINT LeftHand
                        {
                            OFFSET 29.023712 0.000000 0.000000
                            CHANNELS 3 Zrotation Xrotation Yrotation
                            End Site
                            {
                                OFFSET 15.273261 0.000000 0.000000
                            }
                        }
                    }
                }
            }
            JOINT RightShoulder
            {
                OFFSET -3.920664 21.531742 0.000256
                CHANNELS 3 Zrotation Xrotation Yrotation
                JOINT RightArm
                {
                    OFFSET -10.728225 0.000000 0.000000
                    CHANNELS 3 Zrotation Xrotation Yrotation
                    JOINT RightForeArm
                    {
                        OFFSET -30.046112 0.000000 0.000000
                        CHANNELS 3 Zrotation Xrotation Yrotation
                        JOINT RightHand
                        {
                            OFFSET -29.023712 0.000000 0.000000
                            CHANNELS 3 Zrotation Xrotation Yrotation
                            End Site
                            {
                                OFFSET -15.273261 0.000000 0.000000
                            }
                        }
                    }
                }
            }
        }
    }
    JOINT LeftUpLeg
    {
        OFFSET 10.182174 0.000000 0.000000
        CHANNELS 3 Zrotation Xrotation Yrotation
        JOINT LeftLeg
        {
            OFFSET -0.000000 -49.689274 0.000000
            CHANNELS 3 Zrotation Xrotation Yrotation
            JOINT LeftFoot
            {
                OFFSET -0.000000 -39.155319 0.000000
                CHANNELS 3 Zrotation Xrotation Yrotation
                JOINT LeftToeBase
                {
                    OFFSET -0.000000 -6.618412 15.273261
                    CHANNELS 3 Zrotation Xrotation Yrotation
                    End Site
                    {
                        OFFSET -0.000000 0.000000 4.072869
                    }
                }
            }
        }
    }
    JOINT RightUpLeg
    {
        OFFSET -10.182174 0.000000 0.000000
        CHANNELS 3 Zrotation Xrotation Yrotation
        JOINT RightLeg
        {
            OFFSET -0.000000 -49.689274 0.000000
            CHANNELS 3 Zrotation Xrotation Yrotation
            JOINT RightFoot
            {
                OFFSET -0.000000 -39.155319 0.000000
                CHANNELS 3 Zrotation Xrotation Yrotation
                JOINT RightToeBase
                {
                    OFFSET -0.000000 -6.618412 15.273261
                    CHANNELS 3 Zrotation Xrotation Yrotation
                    End Site
                    {
                        OFFSET -0.000000 0.000000 4.072869
                    }
                }
            }
        }
    }
}
MOTION
Frames:    9
Frame Time:    0.008333
82.602440    142.201981    45.738617    -1.718219    -0.206311    93.066391    -1.982888    -4.405940    0.478810    4.387241    9.659233    0.184235    -2.536517    -2.951386    3.485722    1.672891    -1.572045    4.332127    1.257315    7.193770    -16.819765    -54.478069    35.366909    -22.013271    -6.767451    -7.621008    -22.309828    3.254224    -8.833095    3.937901    -3.100135    12.477131    -14.878129    45.464989    51.416676    37.884407    1.337270    -8.075274    13.782206    -11.187513    -8.855389    6.399447    4.657352    5.191216    -3.709091    -6.683538    -4.201247    -0.415430    0.279164    3.248683    9.596359    0.000000    0.000000    0.000000    -2.190108    1.120757    -5.771218    4.283598    3.712759    -4.576361    3.212233    3.948296    1.236141    0.000000    0.000000    0.000000    
82.601143    142.184937    45.697655    -1.704453    -0.130627    92.990707    -2.059796    -4.340086    0.571653    4.336562    9.568863    0.286573    -2.585859    -2.773393    3.484601    1.664752    -1.671572    4.335634    1.264118    7.336298    -16.918579    -54.736462    35.362804    -21.627827    -7.269584    -7.192024    -20.914217    3.481908    -8.400446    4.090628    -3.089350    12.610241    -14.926299    45.920818    51.649216    37.187077    1.777950    -7.559884    12.988805    -10.154644    -8.339581    6.578751    4.542854    5.162950    -3.344381    -6.702148    -3.990715    -0.754262    0.367448    3.042916    9.623889    0.000000    0.000000    0.000000    -2.281659    1.102174    -5.678701    4.278717    3.715548    -4.775246    3.166121    3.976455    1.384072    0.000000    0.000000    0.000000    
82.614197    142.158432    45.654922    -1.686351    -0.074603    93.024887    -2.080535    -4.327692    0.601122    4.238314    9.555928    0.325368    -2.543090    -2.704436    3.446671    1.516911    -1.598635    4.263089    1.202932    7.396625    -16.863817    -54.817871    35.734856    -21.299189    -7.675649    -6.850153    -19.484520    3.470976    -8.035511    4.121109    -3.099864    12.719316    -14.970061    46.269096    52.161011    36.624706    2.010756    -7.216329    12.212027    -9.067993    -7.951553    6.636934    4.464129    5.175361    -3.477245    -6.636981    -3.921018    -0.894003    0.324359    2.856795    9.722245    0.000000    0.000000    0.000000    -2.348836    1.144312    -5.692260    4.349422    3.696659    -4.976732    2.894171    3.883797    1.416548    0.000000    0.000000    0.000000    
82.656952    142.125580    45.620346    -1.624491    -0.032846    92.877434    -2.068993    -4.326391    0.736831    4.111461    9.575614    0.470480    -2.567603    -2.703314    3.415325    1.512197    -1.407605    4.231531    1.181209    7.287764    -16.977468    -55.141579    35.920677    -20.752256    -8.161251    -6.412487    -17.914267    3.309535    -7.575327    4.064106    -3.120724    12.895141    -14.937035    46.810291    52.353077    35.892624    2.506761    -6.858602    11.508794    -8.318341    -7.588588    6.640708    4.390669    5.312932    -3.349376    -6.724069    -3.976016    -0.661000    0.527898    2.822984    9.643470    0.000000    0.000000    0.000000    -2.383288    1.220622    -5.507557    4.304530    3.663890    -5.070896    2.828688    3.804640    1.521657    0.000000    0.000000    0.000000    
82.667885    142.092133    45.559582    -1.568268    -0.033062    92.957436    -1.955685    -4.293601    0.784546    3.911919    9.598241    0.529288    -2.567171    -2.524404    3.393263    1.477921    -1.546752    4.200854    1.331011    7.425535    -17.008142    -55.214302    36.099144    -20.759409    -8.562503    -5.835275    -16.269159    2.876372    -6.951990    4.096982    -3.049971    12.933150    -15.030637    47.157574    52.657669    35.185696    2.978562    -6.473126    10.867588    -7.392208    -7.187518    6.746964    4.354232    5.340971    -3.483147    -6.704146    -3.917184    -0.707200    0.577834    2.701016    9.740187    0.000000    0.000000    0.000000    -2.404370    1.312218    -5.581164    4.293173    3.647256    -5.054054    2.781786    3.702573    1.537861    0.000000    0.000000    0.000000    
82.662926    142.049576    45.498455    -1.523177    -0.063014    93.057190    -1.755841    -4.201207    0.836737    3.614165    9.518464    0.600100    -2.473598    -2.448708    3.340901    1.366508    -1.454858    4.110308    1.428236    7.555984    -17.061548    -55.234200    36.409588    -20.656822    -8.907871    -5.373462    -14.743267    2.537359    -6.428329    4.273282    -2.900373    13.032631    -15.097992    47.487404    52.892448    34.494541    3.543205    -6.017740    10.300780    -6.814219    -6.717727    6.461586    4.347328    5.343021    -3.623723    -6.682311    -3.882071    -0.563103    0.684879    2.602801    9.614877    0.000000    0.000000    0.000000    -2.403641    1.374717    -5.700673    4.296086    3.672353    -5.006514    2.702301    3.565165    1.540779    0.000000    0.000000    0.000000    
82.641510    141.996048    45.437992    -1.555400    -0.095311    93.041267    -1.588155    -4.228210    0.920924    3.411495    9.512492    0.695596    -2.395021    -2.326515    3.369273    1.154673    -1.507273    4.091521    1.386014    7.432357    -17.209370    -55.449650    36.788879    -20.166563    -9.200615    -4.749057    -13.278998    1.769519    -5.749491    4.465357    -2.879112    13.120330    -15.099655    47.826157    53.281372    33.846558    3.776626    -5.562940    9.633679    -5.184865    -6.178358    6.629830    4.336539    5.284086    -3.662323    -6.681964    -3.854302    -0.583783    0.976640    2.503371    9.647925    0.000000    0.000000    0.000000    -2.418617    1.308602    -5.718832    4.314105    3.734171    -4.958575    2.609289    3.399363    1.568650    0.000000    0.000000    0.000000    
82.656670    141.968933    45.404961    -1.553180    -0.214760    93.192665    -1.403104    -4.309845    0.925854    3.288286    9.599005    0.702477    -2.387013    -2.370842    3.310738    1.068020    -1.227697    4.014238    1.413537    7.489373    -17.282459    -55.497318    36.982048    -20.036974    -9.560787    -4.069914    -11.729355    1.041628    -5.010916    4.474933    -2.820550    13.209364    -15.143629    48.083542    53.564384    33.271595    4.155183    -5.202291    9.113276    -3.780564    -5.740426    6.341818    4.459198    5.241967    -3.823641    -6.708094    -3.800542    -0.751341    1.179774    2.428332    9.752678    0.000000    0.000000    0.000000    -2.298681    1.352419    -5.844290    4.301562    3.717884    -5.026690    2.627055    3.360539    1.584470    0.000000    0.000000    0.000000    
82.656647    141.929077    45.378979    -1.628270    -0.315923    93.258881    -1.294288    -4.484223    0.978471    3.254453    9.727239    0.752099    -2.372527    -2.263695    3.268626    0.951570    -1.300197    3.948478    1.390644    7.530571    -17.371140    -55.522213    37.169968    -19.881931    -9.867216    -3.243695    -10.241224    -0.094534    -4.132438    4.719704    -2.788748    13.292351    -15.184875    48.403172    53.803398    32.612000    4.528522    -4.691584    8.568606    -2.789764    -5.184222    6.368742    4.558259    5.128620    -3.879760    -6.745693    -3.747134    -0.837238    1.355851    2.314129    9.771769    0.000000    0.000000    0.000000    -2.209284    1.273003    -5.874724    4.289864    3.743185    -5.157858    2.637348    3.262291    1.687949    0.000000    0.000000    0.000000    
